<?xml version="1.0" encoding="UTF-8" standalone="no"?>
<!-- Created with Inkscape (http://www.inkscape.org/) -->

<svg
   xmlns:dc="http://purl.org/dc/elements/1.1/"
   xmlns:cc="http://creativecommons.org/ns#"
   xmlns:rdf="http://www.w3.org/1999/02/22-rdf-syntax-ns#"
   xmlns:svg="http://www.w3.org/2000/svg"
   xmlns="http://www.w3.org/2000/svg"
   xmlns:sodipodi="http://sodipodi.sourceforge.net/DTD/sodipodi-0.dtd"
   xmlns:inkscape="http://www.inkscape.org/namespaces/inkscape"
   id="svg2"
   version="1.1"
   inkscape:version="0.48.4 r9939"
   width="487.5"
   height="181.25"
   xml:space="preserve"
   sodipodi:docname="logo-rgb-ifgi-text-de.eps"><metadata
     id="metadata8"><rdf:RDF><cc:Work
         rdf:about=""><dc:format>image/svg+xml</dc:format><dc:type
           rdf:resource="http://purl.org/dc/dcmitype/StillImage" /><dc:title></dc:title></cc:Work></rdf:RDF></metadata><defs
     id="defs6" /><sodipodi:namedview
     pagecolor="#ffffff"
     bordercolor="#666666"
     borderopacity="1"
     objecttolerance="10"
     gridtolerance="10"
     guidetolerance="10"
     inkscape:pageopacity="0"
     inkscape:pageshadow="2"
     inkscape:window-width="1920"
     inkscape:window-height="1175"
     id="namedview4"
     showgrid="false"
     inkscape:zoom="4.2934073"
     inkscape:cx="327.67449"
     inkscape:cy="99.541684"
     inkscape:window-x="0"
     inkscape:window-y="0"
     inkscape:window-maximized="1"
     inkscape:current-layer="g10" /><g
     id="g10"
     inkscape:groupmode="layer"
     inkscape:label="ink_ext_XXXXXX"
     transform="matrix(1.25,0,0,-1.25,0,181.25)"><path
       inkscape:connector-curvature="0"
       id="path14"
       style="fill:#ffffff;fill-opacity:1;fill-rule:nonzero;stroke:none"
       d="m 127.218,48.1566 0,11.7688 -1.875,0 0,-11.6211 c 0,-2.6645 -1.702,-4.4164 -4.268,-4.4164 -2.567,0 -4.245,1.7519 -4.245,4.4164 l 0,11.6211 -1.875,0 0,-11.7688 c 0,-3.5039 2.566,-5.9464 6.12,-5.9464 3.552,0 6.143,2.4425 6.143,5.9464" /><path
       inkscape:connector-curvature="0"
       id="path16"
       style="fill:#ffffff;fill-opacity:1;fill-rule:evenodd;stroke:none"
       d="m 141.291,42.3582 0,7.7723 c 0,1.4062 -0.395,2.541 -1.259,3.38 -0.74,0.7403 -1.801,1.1352 -3.108,1.1352 -1.357,0 -2.542,-0.4937 -3.405,-1.4805 l 0,1.3325 -1.777,0 0,-12.1395 1.777,0 0,7.4762 c 0,2.1218 1.184,3.232 3.01,3.232 1.826,0 2.985,-1.0855 2.985,-3.232 l 0,-7.4762 1.777,0" /><path
       inkscape:connector-curvature="0"
       id="path18"
       style="fill:#ffffff;fill-opacity:1;fill-rule:evenodd;stroke:none"
       d="m 147.391,42.3582 0,12.1395 -1.777,0 0,-12.1395 1.777,0 z m 0.123,15.5934 0,1.9988 -1.999,0 0,-1.9988 1.999,0" /><path
       inkscape:connector-curvature="0"
       id="path20"
       style="fill:#ffffff;fill-opacity:1;fill-rule:nonzero;stroke:none"
       d="m 160.394,54.4977 -1.924,0 -3.331,-9.7461 -3.307,9.7461 -1.924,0 4.441,-12.1395 1.579,0 4.466,12.1395" /><path
       inkscape:connector-curvature="0"
       id="path22"
       style="fill:#ffffff;fill-opacity:1;fill-rule:evenodd;stroke:none"
       d="m 171.944,47.959 0,0.814 c 0,3.6024 -1.85,5.8727 -4.984,5.8727 -3.084,0 -4.984,-2.2945 -4.984,-6.218 0,-4.2929 2.097,-6.2175 5.305,-6.2175 2.073,0 3.207,0.6414 4.441,1.875 l -1.209,1.0609 c -0.962,-0.9621 -1.776,-1.3813 -3.183,-1.3813 -2.319,0 -3.578,1.5293 -3.578,4.1942 l 8.192,0 z m -1.776,1.3324 -6.416,0 c 0.05,0.9871 0.099,1.357 0.371,2.0234 0.468,1.1102 1.554,1.8254 2.837,1.8254 1.283,0 2.369,-0.7152 2.837,-1.8254 0.272,-0.6664 0.321,-1.0363 0.371,-2.0234" /><path
       inkscape:connector-curvature="0"
       id="path24"
       style="fill:#ffffff;fill-opacity:1;fill-rule:evenodd;stroke:none"
       d="m 183.815,53.5105 c -0.863,0.8637 -1.751,1.1352 -2.911,1.1352 -1.406,0 -2.739,-0.6172 -3.405,-1.6285 l 0,1.4805 -1.776,0 0,-12.1395 1.776,0 0,7.4516 c 0,1.8504 1.135,3.2566 2.912,3.2566 0.937,0 1.43,-0.2223 2.097,-0.8883 l 1.307,1.3324" /><path
       inkscape:connector-curvature="0"
       id="path26"
       style="fill:#ffffff;fill-opacity:1;fill-rule:nonzero;stroke:none"
       d="m 194.624,45.9113 c 0,2.2699 -1.456,3.084 -3.578,3.2817 l -1.949,0.1726 c -1.53,0.1231 -2.122,0.7403 -2.122,1.7762 0,1.2336 0.937,1.9984 2.714,1.9984 1.258,0 2.369,-0.2961 3.232,-0.9621 l 1.16,1.1598 c -1.086,0.8883 -2.64,1.3078 -4.367,1.3078 -2.591,0 -4.466,-1.3324 -4.466,-3.5531 0,-1.9985 1.258,-3.0598 3.627,-3.2571 l 1.998,-0.1726 c 1.407,-0.1234 2.023,-0.7152 2.023,-1.7766 0,-1.4308 -1.233,-2.1465 -3.232,-2.1465 -1.505,0 -2.812,0.395 -3.775,1.4063 l -1.184,-1.184 c 1.333,-1.2832 2.936,-1.7519 4.984,-1.7519 2.936,0 4.935,1.357 4.935,3.7011" /><path
       inkscape:connector-curvature="0"
       id="path28"
       style="fill:#ffffff;fill-opacity:1;fill-rule:evenodd;stroke:none"
       d="m 199.886,42.3582 0,12.1395 -1.777,0 0,-12.1395 1.777,0 z m 0.123,15.5934 0,1.9988 -1.998,0 0,-1.9988 1.998,0" /><path
       inkscape:connector-curvature="0"
       id="path30"
       style="fill:#ffffff;fill-opacity:1;fill-rule:nonzero;stroke:none"
       d="m 209.016,42.3582 0,1.5297 -0.938,0 c -1.135,0 -1.653,0.666 -1.653,1.7766 l 0,7.4019 2.591,0 0,1.357 -2.591,0 0,3.7996 -1.777,0 0,-3.7996 -1.529,0 0,-1.357 1.529,0 0,-7.4516 c 0,-1.8007 1.037,-3.2566 3.109,-3.2566 l 1.259,0" /><path
       inkscape:connector-curvature="0"
       id="path32"
       style="fill:#ffffff;fill-opacity:1;fill-rule:evenodd;stroke:none"
       d="m 221.208,42.3582 0,8.241 c 0,2.6403 -1.604,4.0465 -4.861,4.0465 -1.974,0 -3.207,-0.3949 -4.293,-1.8016 l 1.209,-1.1101 c 0.716,1.0117 1.505,1.3816 3.06,1.3816 2.22,0 3.109,-0.8879 3.109,-2.6644 l 0,-1.1598 -3.652,0 c -2.714,0 -4.194,-1.3816 -4.194,-3.5035 0,-0.9625 0.32,-1.8754 0.912,-2.4672 0.765,-0.7898 1.752,-1.1105 3.43,-1.1105 1.628,0 2.517,0.3207 3.504,1.3078 l 0,-1.1598 1.776,0 z m -1.776,4.2934 c 0,-1.0118 -0.198,-1.7028 -0.617,-2.0977 -0.765,-0.7398 -1.678,-0.8141 -2.715,-0.8141 -1.924,0 -2.788,0.6661 -2.788,2.0727 0,1.4063 0.889,2.1465 2.715,2.1465 l 3.405,0 0,-1.3074 z m 0.616,10.5601 0,2.1957 -1.776,0 0,-2.1957 1.776,0 z m -5.23,0 0,2.1957 -1.777,0 0,-2.1957 1.777,0" /><path
       inkscape:connector-curvature="0"
       id="path34"
       style="fill:#ffffff;fill-opacity:1;fill-rule:nonzero;stroke:none"
       d="m 230.191,42.3582 0,1.5297 -0.937,0 c -1.136,0 -1.654,0.666 -1.654,1.7766 l 0,7.4019 2.591,0 0,1.357 -2.591,0 0,3.7996 -1.776,0 0,-3.7996 -1.53,0 0,-1.357 1.53,0 0,-7.4516 c 0,-1.8007 1.036,-3.2566 3.109,-3.2566 l 1.258,0" /><path
       inkscape:connector-curvature="0"
       id="path36"
       style="fill:#ffffff;fill-opacity:1;fill-rule:nonzero;stroke:none"
       d="m 255.241,42.3582 0,17.5672 -1.875,0 -5.577,-12.4598 -5.724,12.4598 -1.875,0 0,-17.5672 1.875,0 0,13.3484 4.885,-10.5851 1.604,0 4.812,10.5851 0,-13.3484 1.875,0" /><path
       inkscape:connector-curvature="0"
       id="path38"
       style="fill:#ffffff;fill-opacity:1;fill-rule:evenodd;stroke:none"
       d="m 269.434,42.3582 0,12.1395 -1.777,0 0,-7.4762 c 0,-2.1219 -1.209,-3.232 -3.035,-3.232 -1.826,0 -2.961,1.0851 -2.961,3.232 l 0,7.4762 -1.776,0 0,-7.7477 c 0,-1.4062 0.37,-2.566 1.234,-3.4051 0.74,-0.7402 1.826,-1.1347 3.133,-1.1347 1.357,0 2.566,0.5179 3.43,1.505 l 0,-1.357 1.752,0 z m -6.514,14.8535 0,2.1957 -1.777,0 0,-2.1957 1.777,0 z m 5.231,0 0,2.1957 -1.777,0 0,-2.1957 1.777,0" /><path
       inkscape:connector-curvature="0"
       id="path40"
       style="fill:#ffffff;fill-opacity:1;fill-rule:evenodd;stroke:none"
       d="m 283.429,42.3582 0,7.7723 c 0,1.4062 -0.395,2.541 -1.259,3.38 -0.74,0.7403 -1.801,1.1352 -3.108,1.1352 -1.357,0 -2.542,-0.4937 -3.405,-1.4805 l 0,1.3325 -1.777,0 0,-12.1395 1.777,0 0,7.4762 c 0,2.1218 1.184,3.232 3.01,3.232 1.826,0 2.985,-1.0855 2.985,-3.232 l 0,-7.4762 1.777,0" /><path
       inkscape:connector-curvature="0"
       id="path42"
       style="fill:#ffffff;fill-opacity:1;fill-rule:nonzero;stroke:none"
       d="m 296.511,45.9113 c 0,2.2699 -1.456,3.084 -3.577,3.2817 l -1.95,0.1726 c -1.529,0.1231 -2.122,0.7403 -2.122,1.7762 0,1.2336 0.938,1.9984 2.715,1.9984 1.258,0 2.368,-0.2961 3.232,-0.9621 l 1.159,1.1598 c -1.085,0.8883 -2.64,1.3078 -4.367,1.3078 -2.59,0 -4.466,-1.3324 -4.466,-3.5531 0,-1.9985 1.259,-3.0598 3.627,-3.2571 l 1.999,-0.1726 c 1.406,-0.1234 2.023,-0.7152 2.023,-1.7766 0,-1.4308 -1.234,-2.1465 -3.232,-2.1465 -1.505,0 -2.813,0.395 -3.775,1.4063 l -1.185,-1.184 c 1.333,-1.2832 2.937,-1.7519 4.985,-1.7519 2.935,0 4.934,1.357 4.934,3.7011" /><path
       inkscape:connector-curvature="0"
       id="path44"
       style="fill:#ffffff;fill-opacity:1;fill-rule:nonzero;stroke:none"
       d="m 304.413,42.3582 0,1.5297 -0.937,0 c -1.135,0 -1.653,0.666 -1.653,1.7766 l 0,7.4019 2.59,0 0,1.357 -2.59,0 0,3.7996 -1.777,0 0,-3.7996 -1.53,0 0,-1.357 1.53,0 0,-7.4516 c 0,-1.8007 1.036,-3.2566 3.109,-3.2566 l 1.258,0" /><path
       inkscape:connector-curvature="0"
       id="path46"
       style="fill:#ffffff;fill-opacity:1;fill-rule:evenodd;stroke:none"
       d="m 317.05,47.959 0,0.814 c 0,3.6024 -1.851,5.8727 -4.984,5.8727 -3.084,0 -4.984,-2.2945 -4.984,-6.218 0,-4.2929 2.097,-6.2175 5.305,-6.2175 2.072,0 3.207,0.6414 4.441,1.875 l -1.209,1.0609 c -0.962,-0.9621 -1.777,-1.3813 -3.183,-1.3813 -2.319,0 -3.578,1.5293 -3.578,4.1942 l 8.192,0 z m -1.777,1.3324 -6.415,0 c 0.05,0.9871 0.099,1.357 0.371,2.0234 0.468,1.1102 1.554,1.8254 2.837,1.8254 1.283,0 2.368,-0.7152 2.838,-1.8254 0.271,-0.6664 0.32,-1.0363 0.369,-2.0234" /><path
       inkscape:connector-curvature="0"
       id="path48"
       style="fill:#ffffff;fill-opacity:1;fill-rule:evenodd;stroke:none"
       d="m 328.921,53.5105 c -0.863,0.8637 -1.752,1.1352 -2.911,1.1352 -1.406,0 -2.739,-0.6172 -3.405,-1.6285 l 0,1.4805 -1.777,0 0,-12.1395 1.777,0 0,7.4516 c 0,1.8504 1.135,3.2566 2.911,3.2566 0.938,0 1.431,-0.2223 2.097,-0.8883 l 1.308,1.3324" /><path
       inkscape:connector-curvature="0"
       id="path50"
       style="fill:#ffffff;fill-opacity:1;fill-rule:nonzero;stroke:none"
       d="m 115.202,71.1703 1.87539,0 0,17.5676 -1.87539,0 0,-17.5676 z" /><path
       inkscape:connector-curvature="0"
       id="path52"
       style="fill:#ffffff;fill-opacity:1;fill-rule:evenodd;stroke:none"
       d="m 131.388,71.1703 0,7.7723 c 0,1.4062 -0.395,2.5414 -1.259,3.3801 -0.74,0.7402 -1.8,1.1351 -3.108,1.1351 -1.357,0 -2.542,-0.4933 -3.405,-1.4805 l 0,1.3325 -1.777,0 0,-12.1395 1.777,0 0,7.4758 c 0,2.1223 1.184,3.2324 3.01,3.2324 1.826,0 2.985,-1.0855 2.985,-3.2324 l 0,-7.4758 1.777,0" /><path
       inkscape:connector-curvature="0"
       id="path54"
       style="fill:#ffffff;fill-opacity:1;fill-rule:nonzero;stroke:none"
       d="m 144.47,74.723 c 0,2.2704 -1.456,3.0844 -3.577,3.2821 l -1.95,0.1722 c -1.529,0.1239 -2.122,0.7403 -2.122,1.777 0,1.2336 0.938,1.9984 2.715,1.9984 1.258,0 2.368,-0.2961 3.232,-0.9625 l 1.159,1.1598 c -1.085,0.8883 -2.639,1.3078 -4.367,1.3078 -2.59,0 -4.466,-1.3324 -4.466,-3.5531 0,-1.9985 1.259,-3.0594 3.627,-3.2567 l 1.999,-0.173 c 1.406,-0.123 2.023,-0.7156 2.023,-1.7762 0,-1.4312 -1.234,-2.1468 -3.232,-2.1468 -1.505,0 -2.813,0.3949 -3.775,1.4066 l -1.185,-1.1844 c 1.333,-1.2832 2.937,-1.7519 4.985,-1.7519 2.935,0 4.934,1.357 4.934,3.7007" /><path
       inkscape:connector-curvature="0"
       id="path56"
       style="fill:#ffffff;fill-opacity:1;fill-rule:nonzero;stroke:none"
       d="m 152.372,71.1703 0,1.5297 -0.937,0 c -1.135,0 -1.653,0.6664 -1.653,1.7766 l 0,7.4019 2.59,0 0,1.357 -2.59,0 0,3.8 -1.777,0 0,-3.8 -1.53,0 0,-1.357 1.53,0 0,-7.4512 c 0,-1.8011 1.036,-3.257 3.109,-3.257 l 1.258,0" /><path
       inkscape:connector-curvature="0"
       id="path58"
       style="fill:#ffffff;fill-opacity:1;fill-rule:evenodd;stroke:none"
       d="m 157.681,71.1703 0,12.1395 -1.777,0 0,-12.1395 1.777,0 z m 0.123,15.5938 0,1.9984 -1.999,0 0,-1.9984 1.999,0" /><path
       inkscape:connector-curvature="0"
       id="path60"
       style="fill:#ffffff;fill-opacity:1;fill-rule:nonzero;stroke:none"
       d="m 166.811,71.1703 0,1.5297 -0.938,0 c -1.135,0 -1.653,0.6664 -1.653,1.7766 l 0,7.4019 2.591,0 0,1.357 -2.591,0 0,3.8 -1.777,0 0,-3.8 -1.529,0 0,-1.357 1.529,0 0,-7.4512 c 0,-1.8011 1.037,-3.257 3.109,-3.257 l 1.259,0" /><path
       inkscape:connector-curvature="0"
       id="path62"
       style="fill:#ffffff;fill-opacity:1;fill-rule:evenodd;stroke:none"
       d="m 179.768,71.1703 0,12.1395 -1.777,0 0,-7.4762 c 0,-2.1219 -1.209,-3.2324 -3.034,-3.2324 -1.826,0 -2.961,1.0859 -2.961,3.2324 l 0,7.4762 -1.777,0 0,-7.7477 c 0,-1.4062 0.37,-2.566 1.234,-3.4047 0.74,-0.7402 1.826,-1.1351 3.133,-1.1351 1.357,0 2.566,0.5183 3.43,1.505 l 0,-1.357 1.752,0" /><path
       inkscape:connector-curvature="0"
       id="path64"
       style="fill:#ffffff;fill-opacity:1;fill-rule:nonzero;stroke:none"
       d="m 188.878,71.1703 0,1.5297 -0.938,0 c -1.135,0 -1.653,0.6664 -1.653,1.7766 l 0,7.4019 2.591,0 0,1.357 -2.591,0 0,3.8 -1.776,0 0,-3.8 -1.53,0 0,-1.357 1.53,0 0,-7.4512 c 0,-1.8011 1.036,-3.257 3.109,-3.257 l 1.258,0" /><path
       inkscape:connector-curvature="0"
       id="path66"
       style="fill:#ffffff;fill-opacity:1;fill-rule:nonzero;stroke:none"
       d="m 203.318,81.8785 0,1.357 -2.591,0 0,2.2454 c 0,1.1105 0.494,1.7765 1.629,1.7765 l 0.962,0 0,1.5297 -1.283,0 c -2.073,0 -3.084,-1.4555 -3.084,-3.2566 l 0,-2.295 -1.555,0 0,-1.357 1.555,0 0,-10.7082 1.776,0 0,10.7082 2.591,0" /><path
       inkscape:connector-curvature="0"
       id="path68"
       style="fill:#ffffff;fill-opacity:1;fill-rule:evenodd;stroke:none"
       d="m 215.73,71.1703 0,12.1395 -1.776,0 0,-7.4762 c 0,-2.1219 -1.209,-3.2324 -3.035,-3.2324 -1.826,0 -2.96,1.0859 -2.96,3.2324 l 0,7.4762 -1.777,0 0,-7.7477 c 0,-1.4062 0.37,-2.566 1.234,-3.4047 0.74,-0.7402 1.825,-1.1351 3.133,-1.1351 1.357,0 2.566,0.5183 3.43,1.505 l 0,-1.357 1.751,0 z m -6.513,14.8535 0,2.1961 -1.777,0 0,-2.1961 1.777,0 z m 5.231,0 0,2.1961 -1.777,0 0,-2.1961 1.777,0" /><path
       inkscape:connector-curvature="0"
       id="path70"
       style="fill:#ffffff;fill-opacity:1;fill-rule:evenodd;stroke:none"
       d="m 228.27,82.3227 c -0.863,0.8636 -1.752,1.1351 -2.911,1.1351 -1.407,0 -2.739,-0.6168 -3.405,-1.6285 l 0,1.4805 -1.777,0 0,-12.1395 1.777,0 0,7.4512 c 0,1.8508 1.135,3.257 2.911,3.257 0.938,0 1.431,-0.2219 2.097,-0.8883 l 1.308,1.3325" /><path
       inkscape:connector-curvature="0"
       id="path72"
       style="fill:#ffffff;fill-opacity:1;fill-rule:nonzero;stroke:none"
       d="m 248.704,77.5855 0,2.7879 -6.193,0 0,-1.6531 4.318,0 0,-1.3324 c 0,-1.357 -0.272,-2.3191 -0.988,-3.1828 -0.814,-0.9867 -2.048,-1.5051 -3.33,-1.5051 -1.16,0 -2.27,0.4441 -3.035,1.234 -1.11,1.1348 -1.234,2.3437 -1.234,6.0203 0,3.6762 0.124,4.8605 1.234,5.9953 0.765,0.7899 1.875,1.2586 3.035,1.2586 2.196,0 3.775,-1.357 4.268,-3.5777 l 1.875,0 c -0.518,3.084 -2.788,5.2554 -6.143,5.2554 -1.752,0 -3.307,-0.6414 -4.491,-1.8257 -1.653,-1.6536 -1.653,-3.3805 -1.653,-7.1059 0,-3.7262 0,-5.4531 1.653,-7.1063 1.184,-1.1843 2.764,-1.8257 4.491,-1.8257 1.801,0 3.454,0.691 4.687,2.023 1.086,1.1598 1.506,2.5168 1.506,4.5402" /><path
       inkscape:connector-curvature="0"
       id="path74"
       style="fill:#ffffff;fill-opacity:1;fill-rule:evenodd;stroke:none"
       d="m 262.055,76.7711 0,0.8144 c 0,3.6024 -1.85,5.8723 -4.984,5.8723 -3.083,0 -4.983,-2.2945 -4.983,-6.218 0,-4.2929 2.097,-6.2175 5.305,-6.2175 2.072,0 3.207,0.6414 4.441,1.8754 l -1.209,1.0609 c -0.963,-0.9625 -1.777,-1.382 -3.183,-1.382 -2.32,0 -3.578,1.53 -3.578,4.1945 l 8.191,0 z m -1.776,1.3324 -6.415,0 c 0.049,0.9867 0.099,1.357 0.37,2.0231 0.469,1.1105 1.555,1.8261 2.837,1.8261 1.284,0 2.369,-0.7156 2.838,-1.8261 0.271,-0.6661 0.321,-1.0364 0.37,-2.0231" /><path
       inkscape:connector-curvature="0"
       id="path76"
       style="fill:#ffffff;fill-opacity:1;fill-rule:evenodd;stroke:none"
       d="m 275.111,77.2398 c 0,1.8754 -0.247,3.5778 -1.48,4.836 -0.839,0.839 -1.999,1.382 -3.479,1.382 -1.481,0 -2.64,-0.543 -3.479,-1.382 -1.234,-1.2582 -1.48,-2.9606 -1.48,-4.836 0,-1.875 0.246,-3.5773 1.48,-4.8359 0.839,-0.8391 1.998,-1.3816 3.479,-1.3816 1.48,0 2.64,0.5425 3.479,1.3816 1.233,1.2586 1.48,2.9609 1.48,4.8359 z m -1.776,0 c 0,-1.3566 -0.074,-2.8617 -0.962,-3.75 -0.568,-0.5675 -1.357,-0.8886 -2.221,-0.8886 -0.864,0 -1.629,0.3211 -2.196,0.8886 -0.888,0.8883 -0.987,2.3934 -0.987,3.75 0,1.3575 0.099,2.8622 0.987,3.7504 0.567,0.5676 1.332,0.8883 2.196,0.8883 0.864,0 1.653,-0.3207 2.221,-0.8883 0.888,-0.8882 0.962,-2.3929 0.962,-3.7504" /><path
       inkscape:connector-curvature="0"
       id="path78"
       style="fill:#ffffff;fill-opacity:1;fill-rule:evenodd;stroke:none"
       d="m 280.691,71.1703 0,12.1395 -1.777,0 0,-12.1395 1.777,0 z m 0.123,15.5938 0,1.9984 -1.998,0 0,-1.9984 1.998,0" /><path
       inkscape:connector-curvature="0"
       id="path80"
       style="fill:#ffffff;fill-opacity:1;fill-rule:evenodd;stroke:none"
       d="m 294.706,71.1703 0,7.7723 c 0,1.4062 -0.395,2.5414 -1.258,3.3801 -0.741,0.7402 -1.802,1.1351 -3.109,1.1351 -1.357,0 -2.542,-0.4933 -3.405,-1.4805 l 0,1.3325 -1.777,0 0,-12.1395 1.777,0 0,7.4758 c 0,2.1223 1.184,3.2324 3.01,3.2324 1.826,0 2.986,-1.0855 2.986,-3.2324 l 0,-7.4758 1.776,0" /><path
       inkscape:connector-curvature="0"
       id="path82"
       style="fill:#ffffff;fill-opacity:1;fill-rule:nonzero;stroke:none"
       d="m 303.791,81.8785 0,1.357 -2.591,0 0,2.2454 c 0,1.1105 0.494,1.7765 1.629,1.7765 l 0.962,0 0,1.5297 -1.283,0 c -2.072,0 -3.084,-1.4555 -3.084,-3.2566 l 0,-2.295 -1.554,0 0,-1.357 1.554,0 0,-10.7082 1.776,0 0,10.7082 2.591,0" /><path
       inkscape:connector-curvature="0"
       id="path84"
       style="fill:#ffffff;fill-opacity:1;fill-rule:evenodd;stroke:none"
       d="m 315.587,77.2398 c 0,1.8754 -0.247,3.5778 -1.48,4.836 -0.839,0.839 -1.999,1.382 -3.479,1.382 -1.481,0 -2.64,-0.543 -3.479,-1.382 -1.234,-1.2582 -1.481,-2.9606 -1.481,-4.836 0,-1.875 0.247,-3.5773 1.481,-4.8359 0.839,-0.8391 1.998,-1.3816 3.479,-1.3816 1.48,0 2.64,0.5425 3.479,1.3816 1.233,1.2586 1.48,2.9609 1.48,4.8359 z m -1.776,0 c 0,-1.3566 -0.074,-2.8617 -0.963,-3.75 -0.567,-0.5675 -1.357,-0.8886 -2.22,-0.8886 -0.864,0 -1.629,0.3211 -2.196,0.8886 -0.889,0.8883 -0.987,2.3934 -0.987,3.75 0,1.3575 0.098,2.8622 0.987,3.7504 0.567,0.5676 1.332,0.8883 2.196,0.8883 0.863,0 1.653,-0.3207 2.22,-0.8883 0.889,-0.8882 0.963,-2.3929 0.963,-3.7504" /><path
       inkscape:connector-curvature="0"
       id="path86"
       style="fill:#ffffff;fill-opacity:1;fill-rule:evenodd;stroke:none"
       d="m 327.483,82.3227 c -0.863,0.8636 -1.752,1.1351 -2.912,1.1351 -1.406,0 -2.738,-0.6168 -3.405,-1.6285 l 0,1.4805 -1.776,0 0,-12.1395 1.776,0 0,7.4512 c 0,1.8508 1.136,3.257 2.912,3.257 0.938,0 1.431,-0.2219 2.097,-0.8883 l 1.308,1.3325" /><path
       inkscape:connector-curvature="0"
       id="path88"
       style="fill:#ffffff;fill-opacity:1;fill-rule:evenodd;stroke:none"
       d="m 347.149,71.1703 0,7.7723 c 0,1.4062 -0.444,2.5414 -1.308,3.3801 -0.739,0.7156 -1.825,1.1351 -3.133,1.1351 -1.703,0 -3.06,-0.691 -3.997,-2.023 -0.74,1.332 -2.048,2.023 -3.726,2.023 -1.357,0 -2.566,-0.4933 -3.43,-1.4805 l 0,1.3325 -1.776,0 0,-12.1395 1.776,0 0,7.4758 c 0,2.1223 1.209,3.2324 3.035,3.2324 1.826,0 2.986,-1.0855 2.986,-3.2324 l 0,-7.4758 1.776,0 0,7.6735 c 0,1.9246 1.259,3.0347 3.035,3.0347 1.826,0 2.986,-1.0855 2.986,-3.2324 l 0,-7.4758 1.776,0" /><path
       inkscape:connector-curvature="0"
       id="path90"
       style="fill:#ffffff;fill-opacity:1;fill-rule:evenodd;stroke:none"
       d="m 360.133,71.1703 0,8.241 c 0,2.6399 -1.603,4.0465 -4.86,4.0465 -1.974,0 -3.208,-0.3949 -4.293,-1.8012 l 1.209,-1.1105 c 0.715,1.0117 1.505,1.382 3.059,1.382 2.221,0 3.109,-0.8886 3.109,-2.6648 l 0,-1.1598 -3.652,0 c -2.714,0 -4.194,-1.3816 -4.194,-3.5035 0,-0.9621 0.32,-1.875 0.913,-2.4676 0.765,-0.7894 1.751,-1.1101 3.43,-1.1101 1.628,0 2.516,0.3207 3.503,1.3074 l 0,-1.1594 1.776,0 z m -1.776,4.293 c 0,-1.0113 -0.198,-1.7024 -0.617,-2.0969 -0.765,-0.7402 -1.678,-0.8144 -2.714,-0.8144 -1.924,0 -2.788,0.6664 -2.788,2.0726 0,1.4063 0.888,2.1465 2.714,2.1465 l 3.405,0 0,-1.3078" /><path
       inkscape:connector-curvature="0"
       id="path92"
       style="fill:#ffffff;fill-opacity:1;fill-rule:nonzero;stroke:none"
       d="m 369.116,71.1703 0,1.5297 -0.937,0 c -1.135,0 -1.653,0.6664 -1.653,1.7766 l 0,7.4019 2.59,0 0,1.357 -2.59,0 0,3.8 -1.777,0 0,-3.8 -1.529,0 0,-1.357 1.529,0 0,-7.4512 c 0,-1.8011 1.037,-3.257 3.109,-3.257 l 1.258,0" /><path
       inkscape:connector-curvature="0"
       id="path94"
       style="fill:#ffffff;fill-opacity:1;fill-rule:evenodd;stroke:none"
       d="m 374.425,71.1703 0,12.1395 -1.777,0 0,-12.1395 1.777,0 z m 0.123,15.5938 0,1.9984 -1.998,0 0,-1.9984 1.998,0" /><path
       inkscape:connector-curvature="0"
       id="path96"
       style="fill:#ffffff;fill-opacity:1;fill-rule:nonzero;stroke:none"
       d="m 389.082,71.1703 -4.836,7.5008 4.12,4.6387 -2.221,0 -5.477,-6.3164 0,11.7445 -1.777,0 0,-17.5676 1.777,0 0,3.5039 2.369,2.7137 3.849,-6.2176 2.196,0" /><path
       inkscape:connector-curvature="0"
       id="path98"
       style="fill:#ffffff;fill-opacity:1;fill-rule:evenodd;stroke:none"
       d="m 117.67,101.621 0,12.855 -3.208,0 0,-12.855 3.208,0 z m 0.024,15.051 0,2.616 -3.282,0 0,-2.616 3.282,0" /><path
       inkscape:connector-curvature="0"
       id="path100"
       style="fill:#ffffff;fill-opacity:1;fill-rule:nonzero;stroke:none"
       d="m 127.218,111.664 0,2.442 -2.368,0 0,1.406 c 0,0.741 0.345,1.16 1.11,1.16 l 1.258,0 0,2.714 -1.825,0 c -2.616,0 -3.751,-1.85 -3.751,-3.676 l 0,-1.604 -1.333,0 0,-2.442 1.333,0 0,-10.043 3.208,0 0,10.043 2.368,0" /><path
       inkscape:connector-curvature="0"
       id="path102"
       style="fill:#ffffff;fill-opacity:1;fill-rule:evenodd;stroke:none"
       d="m 139.779,102.09 0,12.386 -3.109,0 0,-1.209 c -0.888,0.987 -1.776,1.357 -3.133,1.357 -1.259,0 -2.369,-0.419 -3.085,-1.135 -1.209,-1.209 -1.307,-2.837 -1.307,-5.082 0,-2.246 0.098,-3.899 1.307,-5.108 0.716,-0.715 1.802,-1.135 3.06,-1.135 1.258,0 2.221,0.345 3.059,1.283 l 0,-1.308 c 0,-1.307 -0.666,-2.664 -2.59,-2.664 -1.086,0 -1.801,0.2957 -2.517,0.987 l -1.998,-2.0233 c 1.332,-1.2832 2.689,-1.6778 4.663,-1.6778 3.454,0 5.65,2.245 5.65,5.3291 z m -3.208,6.317 c 0,-1.703 -0.221,-3.356 -2.121,-3.356 -1.9,0 -2.098,1.653 -2.098,3.356 0,1.702 0.198,3.331 2.098,3.331 1.9,0 2.121,-1.629 2.121,-3.331" /><path
       inkscape:connector-curvature="0"
       id="path104"
       style="fill:#ffffff;fill-opacity:1;fill-rule:evenodd;stroke:none"
       d="m 146.591,101.621 0,12.855 -3.208,0 0,-12.855 3.208,0 z m 0.024,15.051 0,2.616 -3.281,0 0,-2.616 3.281,0" /><path
       inkscape:connector-curvature="0"
       id="path106"
       style="fill:#deddde;fill-opacity:1;fill-rule:nonzero;stroke:none"
       d="M 0.0394531,102.157 42.5836,144.702 85.1066,102.196 42.5625,59.6516 0.0394531,102.157" /><path
       inkscape:connector-curvature="0"
       id="path108"
       style="fill:#a7a5a6;fill-opacity:1;fill-rule:nonzero;stroke:none"
       d="m 42.7367,41.4617 42.4668,42.4668 0,-40.6582 -42.4668,-42.466784 0,40.658184" /><path
       inkscape:connector-curvature="0"
       id="path110"
       style="fill:#b2c6db;fill-opacity:1;fill-rule:nonzero;stroke:none"
       d="m 11.4578,121.039 44.3484,-44.357 0,-40.6746 -44.3484,44.3567 0,40.6749" /><path
       inkscape:connector-curvature="0"
       id="path112"
       style="fill:#004286;fill-opacity:1;fill-rule:nonzero;stroke:none"
       d="m 11.4523,113.572 3.7489,3.749 40.6511,-40.6519 0,-3.7265 -12.9878,-12.9879 -31.4122,31.4121 0,22.2052" /><path
       inkscape:connector-curvature="0"
       id="path114"
       style="fill:#004286;fill-opacity:1;fill-rule:nonzero;stroke:none"
       d="m 46.5188,45.2812 9.3335,9.3333 0,-18.6668 -9.3335,9.3335" /></g></svg>